# xmcd
# 
# Track frame offsets:
#     150
#     12805
#     26900
#     43495
#     64782
#     82930
#     95672
#     114812
#     128880
#     147475
#     169775
#     183965
#     189887
#     205062
#     220670
# 
# Disc length: 3196
# 
# Revision: 2
# Processed by: cddbd v1.5.2PL0 Copyright (c) Steve Scherf et al.
# Submitted via: BonkEnc v1.0.5
# 
DISCID=cc0c7a0f
DTITLE=John Sebastian and the J Band - Chasin' Gus' Ghost
DYEAR=0
DGENRE=
TTITLE0=Stealin'
TTITLE1=Minglewood Blues
TTITLE2=Fare Thee Well
TTITLE3=Write Me a Few of Your Lines
TTITLE4=My Passing Fantasy
TTITLE5=Jug Band Music
TTITLE6=One Step Forward
TTITLE7=Viola Lee
TTITLE8=Got No Automobile
TTITLE9=Wild About My Lovin'
TTITLE10=Kansas City
TTITLE11=Yank Rachell Intro
TTITLE12=Laundromat Blues
TTITLE13=Tap That Thing
TTITLE14=My Baby Left Town
EXTD=
EXTT0=
EXTT1=
EXTT2=
EXTT3=
EXTT4=
EXTT5=
EXTT6=
EXTT7=
EXTT8=
EXTT9=
EXTT10=
EXTT11=
EXTT12=
EXTT13=
EXTT14=
PLAYORDER=
